<svg xmlns="http://www.w3.org/2000/svg" viewBox="0 0 940.23 239.95"><g id="b9eee7ce-be51-4918-a1ab-be1cf1fffa05" data-name="Layer 2"><g id="bab7ef94-bf70-4231-83b2-ce3037693dfd" data-name="Layer 1"><path d="M184.44,163.8l-13.85,46H145.05l-22-74.3h24.31l12,45.53L174,135.5h21.07L209.67,181l11.84-45.53H246l-22,74.3H198.44Z" style="fill:#fc6"/><path d="M284.43,133.65c22,0,38,16.15,38,41.38v5.08H269.51c1.38,6.92,7.84,13.23,18.92,13.23,6.61,0,14-2.62,18.15-6.31l10,14.77c-7.38,6.62-19.69,9.85-31.07,9.85-22.93,0-40.62-14.93-40.62-39.08C244.89,151,261.2,133.65,284.43,133.65ZM269.2,164.73h30.61c-.61-5.23-4.46-12.77-15.38-12.77C274.12,152,270.12,159.34,269.2,164.73Z" style="fill:#fc6"/><path d="M330.27,107.19H354V209.8H330.27Z" style="fill:#fc6"/><path d="M372.42,156.11H360.11V135.5h12.31v-3.7c0-15.84,11.23-26.15,26.61-26.15,6.47,0,12,1.39,15.7,3.39l-4.31,16.15a12.17,12.17,0,0,0-6.15-1.54c-4.93,0-8.16,3.08-8.16,8.77v3.08h15.08v20.61H396.11V209.8H372.42Z" style="fill:#fc6"/><path d="M461,202.42c-4.61,5.53-13.54,9.23-23.07,9.23-11.39,0-25.54-7.69-25.54-24.46,0-18,14.15-23.39,25.54-23.39,9.84,0,18.61,3.08,23.07,8.62V163c0-6.46-5.54-10.76-15.07-10.76a33.12,33.12,0,0,0-21.08,7.84l-8.46-14.92c9.54-8.16,22.3-11.54,33.69-11.54,17.84,0,34.61,6.62,34.61,29.69V209.8H461Zm0-18.31c-2.46-3.38-8-5.23-13.23-5.23-6.31,0-11.84,2.77-11.84,8.61s5.53,8.62,11.84,8.62c5.23,0,10.77-1.85,13.23-5.39Z" style="fill:#fc6"/><path d="M498.11,135.5H521.8v9.38c4.92-6,14.3-11.23,23.23-11.23v22.92a19.28,19.28,0,0,0-5.85-.77c-6.15,0-14.31,2.62-17.38,6.93V209.8H498.11Z" style="fill:#fc6"/><path d="M586.56,133.65c22,0,38,16.15,38,41.38v5.08H571.64c1.38,6.92,7.85,13.23,18.92,13.23,6.62,0,14-2.62,18.16-6.31l10,14.77c-7.38,6.62-19.69,9.85-31.07,9.85-22.92,0-40.61-14.93-40.61-39.08C547,151,563.33,133.65,586.56,133.65Zm-15.23,31.08H602c-.62-5.23-4.47-12.77-15.39-12.77C576.26,152,572.26,159.34,571.33,164.73Z" style="fill:#fc6"/><path d="M636.25,238.11V135.5h8v11.84a31.66,31.66,0,0,1,25.85-13.69c19.84,0,33.22,15.08,33.22,38.92,0,23.69-13.38,39.08-33.22,39.08-10.47,0-19.85-5.39-25.85-13.85v40.31Zm32.46-97.23c-10.31,0-20.15,6.15-24.46,13.38v36.62c4.31,7.08,14.15,13.54,24.46,13.54,16.62,0,26-13.85,26-31.85S685.33,140.88,668.71,140.88Z" style="fill:#fc6"/><path d="M767.32,201c-6.62,7.23-14.92,10.62-25.23,10.62-12.77,0-26-8.77-26-24.77,0-16.15,13.08-24.46,26-24.46,10.31,0,18.61,3.23,25.23,10.46V157.8c0-10.92-8.92-17.07-20-17.07-9.23,0-16.46,3.23-23.23,10.92l-4.46-5.38c7.69-8.47,16.31-12.62,28.46-12.62,15.23,0,27.23,7.23,27.23,23.85v52.3h-8Zm0-22.15c-5.23-6.77-13.54-10.31-22.46-10.31-12.31,0-20.31,8-20.31,18.46s8,18.31,20.31,18.31c8.92,0,17.23-3.38,22.46-10.15Z" style="fill:#fc6"/><path d="M796.39,135.5h8v12.77C810.7,140,819.16,134,829.47,134v8.77a31.37,31.37,0,0,0-4-.31c-7.54,0-17.69,6.77-21.08,13.23V209.8h-8Z" style="fill:#fc6"/><path d="M842.85,195.49V142.73H830.54V135.5h12.31V115.19H851V135.5h15.08v7.23H851v51.53c0,6,2.47,10.16,7.7,10.16a11.63,11.63,0,0,0,8.3-3.54l3.08,6.15c-2.92,2.77-6.46,4.62-12.61,4.62C847.62,211.65,842.85,205.65,842.85,195.49Z" style="fill:#fc6"/><path d="M882.54,232.72c5.08,0,8.46-2,11.38-9.07l5.85-13.23L868.39,135.5h8.92l26.92,64.92,26.92-64.92h9.08l-38.46,90.61c-4,9.38-10.31,13.84-19.08,13.84a31.39,31.39,0,0,1-7.84-1.07l1.38-7.39A18.41,18.41,0,0,0,882.54,232.72Z" style="fill:#fc6"/><path d="M174.41,38.84s-7,25.13-22.12,38.88l8.78,8.17a2.17,2.17,0,0,1,.6,2.22c-1,3.26-4.71,11.39-15.88,11.39-10.33,0-13.3-7.66-14.12-11.66a2.15,2.15,0,0,1,1.92-2.59l4.44-.38a2.17,2.17,0,0,1,2.31,1.72c.51,2.59,2.23,6.74,8.13,5,8.33-2.53-20.4-17.88-20.4-17.88a89.59,89.59,0,0,1-18.26,8.78c-.18-.49-.35-1-.53-1.47a42,42,0,0,0-8.23-13.68,30,30,0,0,0-14.79-8.93,13.32,13.32,0,0,1,3.38,2.12,23.37,23.37,0,0,1,3.77,3.4,29.47,29.47,0,0,1,5.39,8.64,40.56,40.56,0,0,1,2.88,18.19c-.92,9.85-4.36,29.65-17.32,43.26-17.87,18.77-17.2,23-9.83,45.58,5.25,16,1.34,25.21-1.36,29.16a2.16,2.16,0,0,1-3.58,0l-2.79-4.2a2.24,2.24,0,0,1-.31-1.63c.71-3.51,2.05-18.08-16.27-45.18a2.16,2.16,0,0,1,.11-2.57c3.87-4.74,17.32-22.44,18.86-42.12C71,90,50.42,91.55,47.52,71.44c0,0-19.84,15.35-18.17,56.57C31,168.46,27.48,191.49,3,201.53a2.16,2.16,0,0,1-2.1-3.74c6-4.47,23-22.09,12.4-74.47C.53,60.31,61.19,26.46,92,26.46s57.65,25.14,64,0c0,0-14.25-5.9-15.06-24.22A2.15,2.15,0,0,1,143.24,0c5.61.23,20,2.24,24.53,16.43l13.88,2.45a2.15,2.15,0,0,1,1.65,1.37l2.28,6.07a2.21,2.21,0,0,0,1.08,1.19l9.67,4.71a2.14,2.14,0,0,1,.85,3.13C195.17,38.35,189.54,42.84,174.41,38.84Z" style="fill:#fc6"/></g></g></svg>