<svg xmlns="http://www.w3.org/2000/svg" viewBox="0 0 197.55 209.66"><g id="bc2992a1-5088-47cf-8ee1-dc9531eff8ae" data-name="Layer 2"><g id="bab65a51-87e1-4e29-9bfc-2049f151d8fb" data-name="Layer 1"><path d="M174.41,38.84s-7,25.13-22.12,38.88l8.78,8.17a2.17,2.17,0,0,1,.6,2.22c-1,3.26-4.71,11.39-15.88,11.39-10.33,0-13.3-7.66-14.12-11.66a2.15,2.15,0,0,1,1.92-2.59l4.44-.38a2.17,2.17,0,0,1,2.31,1.72c.51,2.59,2.23,6.74,8.13,5,8.33-2.53-20.4-17.88-20.4-17.88a89.59,89.59,0,0,1-18.26,8.78c-.18-.49-.35-1-.53-1.47a42,42,0,0,0-8.23-13.68,30,30,0,0,0-14.79-8.93,13.32,13.32,0,0,1,3.38,2.12,23.37,23.37,0,0,1,3.77,3.4,29.47,29.47,0,0,1,5.39,8.64,40.56,40.56,0,0,1,2.88,18.19c-.92,9.85-4.36,29.65-17.32,43.26-17.87,18.77-17.2,23-9.83,45.58,5.25,16,1.34,25.21-1.36,29.16a2.16,2.16,0,0,1-3.58,0l-2.79-4.2a2.24,2.24,0,0,1-.31-1.63c.71-3.51,2.05-18.08-16.27-45.18a2.16,2.16,0,0,1,.11-2.57c3.87-4.74,17.32-22.44,18.86-42.12C71,90,50.42,91.55,47.52,71.44c0,0-19.84,15.35-18.17,56.57C31,168.46,27.48,191.49,3,201.53a2.16,2.16,0,0,1-2.1-3.74c6-4.47,23-22.09,12.4-74.47C.53,60.31,61.19,26.46,92,26.46s57.65,25.14,64,0c0,0-14.25-5.9-15.06-24.22A2.15,2.15,0,0,1,143.24,0c5.61.23,20,2.24,24.53,16.43l13.88,2.45a2.15,2.15,0,0,1,1.65,1.37l2.28,6.07a2.21,2.21,0,0,0,1.08,1.19l9.67,4.71a2.14,2.14,0,0,1,.85,3.13C195.17,38.35,189.54,42.84,174.41,38.84Z" style="fill:#fc6"/></g></g></svg>