<svg xmlns="http://www.w3.org/2000/svg" viewBox="0 0 817.18 134.3"><g id="bf66ee30-5b19-456a-8a6b-4e3073c2de71" data-name="Layer 2"><g id="e469b295-1735-4353-9656-b9ab258bae9c" data-name="Layer 1"><path d="M61.38,82.15l-13.84,46H22L0,53.84H24.31l12,45.54L50.92,53.84H72L86.61,99.38,98.46,53.84h24.46l-22,74.31H75.38Z" transform="translate(0 -24)" style="fill:#fc6"/><path d="M161.37,52c22,0,38,16.15,38,41.38v5.08H146.45c1.39,6.92,7.85,13.23,18.92,13.23,6.62,0,14-2.62,18.16-6.31l10,14.77c-7.39,6.61-19.7,9.84-31.08,9.84-22.92,0-40.61-14.92-40.61-39.07C121.84,69.38,138.14,52,161.37,52ZM146.14,83.07h30.62c-.62-5.23-4.46-12.77-15.39-12.77C151.07,70.3,147.07,77.69,146.14,83.07Z" transform="translate(0 -24)" style="fill:#fc6"/><path d="M207.22,25.54h23.69V128.15H207.22Z" transform="translate(0 -24)" style="fill:#fc6"/><path d="M249.37,74.46H237.06V53.84h12.31V50.15C249.37,34.3,260.6,24,276,24c6.46,0,12,1.38,15.69,3.38l-4.31,16.15A12.23,12.23,0,0,0,281.21,42c-4.92,0-8.15,3.07-8.15,8.77v3.07h15.07V74.46H273.06v53.69H249.37Z" transform="translate(0 -24)" style="fill:#fc6"/><path d="M338,120.76c-4.62,5.54-13.54,9.23-23.08,9.23-11.38,0-25.54-7.69-25.54-24.46,0-18,14.16-23.38,25.54-23.38,9.85,0,18.61,3.08,23.08,8.61V81.38c0-6.46-5.54-10.77-15.08-10.77a33.15,33.15,0,0,0-21.08,7.85l-8.46-14.93C302.9,55.38,315.67,52,327.05,52c17.85,0,34.62,6.61,34.62,29.69v46.46H338Zm0-18.3c-2.47-3.39-8-5.24-13.23-5.24-6.31,0-11.85,2.77-11.85,8.62s5.54,8.61,11.85,8.61c5.23,0,10.76-1.84,13.23-5.38Z" transform="translate(0 -24)" style="fill:#fc6"/><path d="M375.05,53.84h23.69v9.39C403.67,57.23,413.05,52,422,52V74.92a19.16,19.16,0,0,0-5.84-.77c-6.16,0-14.31,2.61-17.39,6.92v47.08H375.05Z" transform="translate(0 -24)" style="fill:#fc6"/><path d="M463.51,52c22,0,38,16.15,38,41.38v5.08H448.58c1.39,6.92,7.85,13.23,18.93,13.23,6.61,0,14-2.62,18.15-6.31l10,14.77C488.28,126.76,476,130,464.58,130,441.66,130,424,115.07,424,90.92,424,69.38,440.28,52,463.51,52ZM448.28,83.07h30.61c-.61-5.23-4.46-12.77-15.38-12.77C453.2,70.3,449.2,77.69,448.28,83.07Z" transform="translate(0 -24)" style="fill:#fc6"/><path d="M513.2,156.45V53.84h8V65.69A31.64,31.64,0,0,1,547,52c19.84,0,33.23,15.07,33.23,38.92,0,23.69-13.39,39.07-33.23,39.07-10.46,0-19.85-5.38-25.84-13.84v40.3Zm32.46-97.22c-10.31,0-20.16,6.15-24.46,13.38v36.61c4.3,7.08,14.15,13.54,24.46,13.54,16.61,0,26-13.84,26-31.84S562.27,59.23,545.66,59.23Z" transform="translate(0 -24)" style="fill:#fc6"/><path d="M644.26,119.38C637.65,126.61,629.34,130,619,130c-12.76,0-26-8.77-26-24.77,0-16.15,13.07-24.46,26-24.46,10.31,0,18.62,3.23,25.23,10.46V76.15c0-10.92-8.92-17.08-20-17.08C615,59.07,607.8,62.3,601,70l-4.47-5.38C604.27,56.15,612.88,52,625,52c15.23,0,27.23,7.23,27.23,23.84v52.31h-8Zm0-22.16c-5.23-6.76-13.53-10.3-22.46-10.3-12.3,0-20.3,8-20.3,18.46s8,18.3,20.3,18.3c8.93,0,17.23-3.38,22.46-10.15Z" transform="translate(0 -24)" style="fill:#fc6"/><path d="M673.34,53.84h8V66.61c6.31-8.31,14.77-14.31,25.07-14.31v8.77a33.14,33.14,0,0,0-4-.31c-7.53,0-17.69,6.77-21.07,13.23v54.16h-8Z" transform="translate(0 -24)" style="fill:#fc6"/><path d="M719.79,113.84V61.07h-12.3V53.84h12.3V33.54H728v20.3H743v7.23H728v51.54c0,6,2.46,10.15,7.69,10.15a11.59,11.59,0,0,0,8.31-3.54l3.07,6.16c-2.92,2.77-6.46,4.61-12.61,4.61C724.56,130,719.79,124,719.79,113.84Z" transform="translate(0 -24)" style="fill:#fc6"/><path d="M759.49,151.07c5.07,0,8.46-2,11.38-9.08l5.84-13.23L745.33,53.84h8.92l26.93,64.92L808.1,53.84h9.07l-38.46,90.61c-4,9.39-10.3,13.85-19.07,13.85a31,31,0,0,1-7.85-1.08l1.39-7.38A18.32,18.32,0,0,0,759.49,151.07Z" transform="translate(0 -24)" style="fill:#fc6"/></g></g></svg>