<svg xmlns="http://www.w3.org/2000/svg" viewBox="0 0 1089.68 238.15"><g id="aa2b7795-6174-42ee-a6dc-41058bed538c" data-name="Layer 2"><g id="a1a32470-d59a-4b9f-85f2-b3a6c5c577ae" data-name="Layer 1"><path d="M146,195.86,90.6,140.44a8.87,8.87,0,1,1,12.55-12.55L88.88,113.62a8.88,8.88,0,0,1-2.6-6.28,8.49,8.49,0,0,1,.11-1.42,8.86,8.86,0,0,1,14.2-5.58l-5.43-5.43a8.88,8.88,0,0,1-2.61-6.29,8.66,8.66,0,0,1,.12-1.44,8.88,8.88,0,0,1,15-4.83l6.22,6.22a8.85,8.85,0,0,1-2.49-7.7A8.76,8.76,0,0,1,113.92,76a8.89,8.89,0,0,1,12.56,0l36,36,.1-.14a16.23,16.23,0,0,1,23,0l16.8,16.8a17.17,17.17,0,0,1,5,12.16v10.5a18.57,18.57,0,0,0,5.44,13.1l3.74,3.74-42.83,42.84L169,206.26a18.52,18.52,0,0,0-11.9-5.39A17.29,17.29,0,0,1,146,195.86Z" style="fill:#fecbaa"/><path d="M171,213.83l48.61-48.62a4.12,4.12,0,0,1,5.81,0l17.31,17.31a4.1,4.1,0,0,1,0,5.8l-48.62,48.62a4.1,4.1,0,0,1-5.8,0L171,219.63A4.1,4.1,0,0,1,171,213.83Z" style="fill:#fdd559"/><path d="M220.89,187a3.67,3.67,0,1,0,0-5.2A3.68,3.68,0,0,0,220.89,187Z" style="fill:#ff8812"/><path d="M174.89,124.44,162.49,112l.1-.14a16.11,16.11,0,0,1,6.27-3.9l11.24,11.23a3.68,3.68,0,1,1-5.21,5.21Z" style="fill:#ffae85"/><path d="M97.89,195.86l55.42-55.42a8.88,8.88,0,0,0,0-12.56,8.89,8.89,0,0,0-12.56,0L155,113.62a8.87,8.87,0,0,0,2.6-6.28,8.37,8.37,0,0,0-.11-1.41,8.84,8.84,0,0,0-7.28-7.34,8.89,8.89,0,0,0-6.92,1.75l5.43-5.43A8.87,8.87,0,1,0,136.2,82.36L130,88.58a8.87,8.87,0,0,0,2.49-7.7A8.73,8.73,0,0,0,130,76a8.88,8.88,0,0,0-12.56,0l-36,36-.1-.14a16.22,16.22,0,0,0-23,0l-16.8,16.79a17.19,17.19,0,0,0-5,12.16v10.51a18.57,18.57,0,0,1-5.44,13.1l-3.74,3.74,42.83,42.83,4.79-4.78a18.53,18.53,0,0,1,11.9-5.4A17.19,17.19,0,0,0,97.89,195.86Z" style="fill:#fecbaa"/><path d="M72.93,213.83,24.32,165.22a4.09,4.09,0,0,0-5.8,0L1.2,182.53a4.1,4.1,0,0,0,0,5.8L49.82,237a4.1,4.1,0,0,0,5.8,0l17.31-17.32A4.09,4.09,0,0,0,72.93,213.83Z" style="fill:#ff84a7"/><path d="M56.34,220.35a3.67,3.67,0,1,0-5.2,0A3.68,3.68,0,0,0,56.34,220.35Z" style="fill:#ef6085"/><path d="M69,124.44,81.42,112l-.1-.14a16.35,16.35,0,0,0-6.27-3.9L63.81,119.24a3.68,3.68,0,1,0,5.21,5.2Z" style="fill:#ffae85"/><path d="M157.4,63v78.38a8.88,8.88,0,1,1-17.75,0V161.6a8.87,8.87,0,0,1-2.59,6.28,8.7,8.7,0,0,1-1.09.92,8.85,8.85,0,0,1-14-6.09v7.68a8.85,8.85,0,0,1-2.61,6.29,8.16,8.16,0,0,1-1.1.94,8.84,8.84,0,0,1-10.37,0,8.9,8.9,0,0,1-3.68-7.21V161.6a8.88,8.88,0,1,1-17.75,0V110.67l-.17,0A16.23,16.23,0,0,1,70.08,94.44V70.69a17.24,17.24,0,0,1,5-12.17l7.42-7.43A18.56,18.56,0,0,0,88,38V32.69h60.58v6.77a18.52,18.52,0,0,0,4.6,12.23A17.22,17.22,0,0,1,157.4,63Z" style="fill:#fedfc5"/><path d="M153.32,127.88a8.89,8.89,0,0,0-12.56,0L155,113.62a8.87,8.87,0,0,0,2.61-6.27,8.42,8.42,0,0,0-.12-1.42,8.84,8.84,0,0,0-7.28-7.34,8.89,8.89,0,0,0-6.92,1.75l5.44-5.43a8.87,8.87,0,0,0,2.6-6.28,8.84,8.84,0,0,0-7.46-8.76,8.87,8.87,0,0,0-7.7,2.49L130,88.58a8.87,8.87,0,0,0,2.49-7.7A8.73,8.73,0,0,0,130,76a8.88,8.88,0,0,0-12.56,0l-36,36-.1-.14a16.16,16.16,0,0,0-14.7-4.42,23.89,23.89,0,0,0,12.5,9.46V161.6a16.27,16.27,0,0,0,16.24,16.25,15.85,15.85,0,0,0,3.17-.31,16.27,16.27,0,0,0,5,6,16.6,16.6,0,0,0,4.36,2.26l45.37-45.37A8.88,8.88,0,0,0,153.32,127.88Z" style="fill:#ffae85"/><path d="M164.76,141.42V110.07a17,17,0,0,0-2.17,1.83l-.1.14-36-36a8.87,8.87,0,1,0-12.55,12.55l-6.22-6.22a8.87,8.87,0,0,0-15,4.83,7.7,7.7,0,0,0-.11,1.44,8.91,8.91,0,0,0,2.6,6.29l5.43,5.43a8.85,8.85,0,0,0-14.19,5.58,8.51,8.51,0,0,0-.12,1.42,8.85,8.85,0,0,0,2.61,6.28l14.27,14.27A8.87,8.87,0,1,0,90.6,140.44l37.13,37.12a16.22,16.22,0,0,0,12.55-2.78,16.82,16.82,0,0,0,2-1.69A16.17,16.17,0,0,0,147,161.6v-4c.5.05,1,.07,1.51.07A16.27,16.27,0,0,0,164.76,141.42Z" style="fill:#ffae85"/><path d="M157.4,63v78.38a8.88,8.88,0,0,1-8.87,8.89h-.42a8.88,8.88,0,0,1-4.77-1.67h0a8.88,8.88,0,0,1-3.68-7.2V161.6a8.87,8.87,0,0,1-2.59,6.28,8.7,8.7,0,0,1-1.09.92,8.85,8.85,0,0,1-14-6.09v7.68a8.85,8.85,0,0,1-2.61,6.29,8.16,8.16,0,0,1-1.1.94,8.84,8.84,0,0,1-10.37,0,8.9,8.9,0,0,1-3.68-7.21V161.6a8.88,8.88,0,1,1-17.75,0V110.67l-.17,0A16.23,16.23,0,0,1,70.08,94.44V70.69a17.24,17.24,0,0,1,5-12.17l7.42-7.43A18.6,18.6,0,0,0,88,38V32.69h60.58v6.77a16.8,16.8,0,0,0,.58,4.57,18.49,18.49,0,0,0,4,7.66A17.33,17.33,0,0,1,157.4,63Z" style="fill:#fedfc5"/><path d="M157.4,63v78.38a8.88,8.88,0,0,1-8.87,8.89h-.42a8.88,8.88,0,0,1-4.77-1.67l.16-75.52a11.86,11.86,0,0,0-.3-2.1c-3.39-16.5-17.31-27.55-34.15-27.55H87.12A18.53,18.53,0,0,0,88,38V32.69h60.58v6.77a16.8,16.8,0,0,0,.58,4.57,18.49,18.49,0,0,0,4,7.66A17.33,17.33,0,0,1,157.4,63Z" style="fill:#fecbaa"/><path d="M152.46,32.69H83.71a4.11,4.11,0,0,1-4.11-4.1V4.1A4.11,4.11,0,0,1,83.71,0h68.75a4.1,4.1,0,0,1,4.1,4.1V28.59A4.1,4.1,0,0,1,152.46,32.69Z" style="fill:#83d9ff"/><path d="M99,16.35A3.68,3.68,0,1,0,95.36,20,3.68,3.68,0,0,0,99,16.35Z" style="fill:#5186ff"/><path d="M143.34,100.4v48.22a8.86,8.86,0,0,1-3.69-7.2V161.6a8.87,8.87,0,0,1-2.59,6.28,8.7,8.7,0,0,1-1.09.92V100.4a3.69,3.69,0,0,1,7.37,0Z" style="fill:#fecbaa"/><path d="M125.64,100.4v68.44a8.86,8.86,0,0,1-3.65-6.13v7.68a8.85,8.85,0,0,1-2.61,6.29,8.16,8.16,0,0,1-1.1.94V100.4a3.68,3.68,0,0,1,7.36,0Z" style="fill:#fecbaa"/><path d="M107.91,100.4v77.2a8.9,8.9,0,0,1-3.68-7.21V161.6a8.87,8.87,0,0,1-3.68,7.2V100.4a3.68,3.68,0,1,1,7.36,0Z" style="fill:#fecbaa"/><path d="M86.49,93.13v17.54l-.18,0A16.21,16.21,0,0,1,79.12,109V93.13a3.69,3.69,0,0,1,7.37,0Z" style="fill:#fecbaa"/><path d="M333.88,104.56l-13.84,46H294.5l-22-74.3h24.31l12,45.53,14.61-45.53H344.5l14.61,45.53L371,76.26h24.46l-22,74.3H347.88Z" style="fill:#fff"/><path d="M433.88,74.41c22,0,38,16.15,38,41.38v5.08H419c1.39,6.92,7.85,13.23,18.93,13.23,6.61,0,14-2.61,18.15-6.31l10,14.77c-7.38,6.62-19.69,9.85-31.08,9.85-22.92,0-40.61-14.92-40.61-39.08C394.34,91.79,410.65,74.41,433.88,74.41Zm-15.23,31.08h30.61c-.61-5.23-4.46-12.77-15.38-12.77C423.57,92.72,419.57,100.1,418.65,105.49Z" style="fill:#fff"/><path d="M479.72,48h23.69V150.56H479.72Z" style="fill:#fff"/><path d="M521.87,96.87H509.56V76.26h12.31V72.57c0-15.85,11.23-26.16,26.61-26.16,6.46,0,12,1.39,15.69,3.39L559.87,66a12.18,12.18,0,0,0-6.16-1.54c-4.92,0-8.15,3.08-8.15,8.77v3.08h15.08V96.87H545.56v53.69H521.87Z" style="fill:#fff"/><path d="M610.48,143.18c-4.62,5.54-13.54,9.23-23.08,9.23-11.38,0-25.53-7.69-25.53-24.46,0-18,14.15-23.39,25.53-23.39,9.85,0,18.62,3.08,23.08,8.62v-9.39c0-6.46-5.54-10.76-15.08-10.76a33.11,33.11,0,0,0-21.07,7.84L565.87,86c9.53-8.15,22.3-11.54,33.69-11.54,17.84,0,34.61,6.62,34.61,29.69v46.46H610.48Zm0-18.31c-2.46-3.38-8-5.23-13.23-5.23-6.31,0-11.85,2.77-11.85,8.61s5.54,8.62,11.85,8.62c5.23,0,10.77-1.85,13.23-5.38Z" style="fill:#fff"/><path d="M647.55,76.26h23.7v9.38c4.92-6,14.3-11.23,23.23-11.23V97.33a19.28,19.28,0,0,0-5.85-.77c-6.15,0-14.31,2.62-17.38,6.93v47.07h-23.7Z" style="fill:#fff"/><path d="M736,74.41c22,0,38,16.15,38,41.38v5.08H721.09c1.38,6.92,7.84,13.23,18.92,13.23,6.62,0,14-2.61,18.15-6.31l10,14.77c-7.38,6.62-19.69,9.85-31.07,9.85-22.92,0-40.62-14.92-40.62-39.08C696.47,91.79,712.78,74.41,736,74.41Zm-15.23,31.08h30.61c-.61-5.23-4.46-12.77-15.38-12.77C725.7,92.72,721.7,100.1,720.78,105.49Z" style="fill:#fff"/><path d="M785.7,178.87V76.26h8V88.1a31.66,31.66,0,0,1,25.84-13.69c19.85,0,33.23,15.08,33.23,38.92,0,23.69-13.38,39.08-33.23,39.08-10.46,0-19.84-5.39-25.84-13.85v40.31Zm32.46-97.23C807.85,81.64,798,87.79,793.7,95v36.61c4.31,7.08,14.15,13.54,24.46,13.54,16.61,0,26-13.85,26-31.85S834.77,81.64,818.16,81.64Z" style="fill:#fff"/><path d="M916.77,141.79c-6.62,7.23-14.92,10.62-25.23,10.62-12.77,0-26-8.77-26-24.77,0-16.15,13.07-24.46,26-24.46,10.31,0,18.61,3.23,25.23,10.46V98.56c0-10.92-8.93-17.07-20-17.07-9.23,0-16.46,3.23-23.23,10.92L869.08,87c7.69-8.46,16.3-12.62,28.46-12.62,15.23,0,27.23,7.23,27.23,23.85v52.3h-8Zm0-22.15c-5.23-6.77-13.54-10.31-22.46-10.31-12.31,0-20.31,8-20.31,18.46s8,18.31,20.31,18.31c8.92,0,17.23-3.38,22.46-10.15Z" style="fill:#fff"/><path d="M945.84,76.26h8V89c6.31-8.31,14.77-14.31,25.08-14.31v8.77a31.37,31.37,0,0,0-4-.31c-7.54,0-17.69,6.77-21.08,13.23v54.15h-8Z" style="fill:#fff"/><path d="M992.3,136.25V83.49H980V76.26H992.3V56h8.15V76.26h15.08v7.23h-15.08V135c0,6,2.46,10.16,7.69,10.16a11.63,11.63,0,0,0,8.31-3.54l3.08,6.15c-2.93,2.77-6.46,4.62-12.62,4.62C997.07,152.41,992.3,146.41,992.3,136.25Z" style="fill:#fff"/><path d="M1032,173.48c5.07,0,8.46-2,11.38-9.07l5.85-13.23-31.38-74.92h8.92l26.92,64.92,26.92-64.92h9.08l-38.46,90.61c-4,9.38-10.31,13.84-19.08,13.84a31.39,31.39,0,0,1-7.84-1.07l1.38-7.39A18.36,18.36,0,0,0,1032,173.48Z" style="fill:#fff"/></g></g></svg>